<svg width="343" height="267" viewBox="0 0 343 267" fill="none" xmlns="http://www.w3.org/2000/svg">
<path d="M2.71003 4.90996H8.31003C11.57 4.90996 13.27 6.72997 13.27 9.24997C13.27 11.77 11.57 13.61 8.31003 13.61H5.27003V19.09H2.71003V4.90996ZM8.17003 11.35C9.89003 11.35 10.67 10.57 10.67 9.26997C10.67 7.96996 9.89003 7.16997 8.17003 7.16997H5.27003V11.35H8.17003ZM18.0044 19.21C16.3044 19.21 15.1644 18.39 15.1644 16.41V4.60997H17.6844V15.99C17.6844 16.59 17.8244 16.99 18.6844 16.99C18.9044 16.99 18.9644 16.97 19.1044 16.97V19.07C18.6444 19.17 18.4644 19.21 18.0044 19.21ZM24.1828 19.37C21.7028 19.37 20.4228 17.81 20.4228 16.11C20.4228 14.21 21.8228 12.95 24.1428 12.79L27.0028 12.59V11.99C27.0028 11.01 26.4828 10.33 25.1628 10.33C23.9428 10.33 23.3228 10.87 23.2628 11.83H20.8428C20.8428 9.84997 22.6228 8.40997 25.2028 8.40997C27.8828 8.40997 29.4428 9.64997 29.4428 12.33V16.51C29.4428 16.99 29.6628 17.17 30.0828 17.17C30.2028 17.17 30.3228 17.15 30.4028 17.13V18.97C30.0828 19.15 29.7228 19.25 29.1628 19.25C28.0828 19.25 27.4228 18.63 27.2628 17.73C26.7828 18.57 25.6628 19.37 24.1828 19.37ZM24.5228 17.37C26.2228 17.37 27.0028 16.25 27.0028 14.89V14.43L24.6028 14.61C23.6028 14.69 22.8628 15.07 22.8628 16.01C22.8628 16.81 23.4828 17.37 24.5228 17.37ZM36.2603 19.23C34.1603 19.23 32.9603 18.17 32.9603 16.17V10.75H30.9803V8.68997H32.9603V6.04997L35.4603 5.42997V8.68997H37.9803V10.75H35.4603V15.81C35.4603 16.61 35.9803 16.95 36.7803 16.95C37.3003 16.95 37.6803 16.89 38.0003 16.81V18.97C37.4603 19.17 36.8603 19.23 36.2603 19.23ZM44.3463 19.23C42.2463 19.23 41.0463 18.17 41.0463 16.17V10.75H39.0663V8.68997H41.0463V6.04997L43.5463 5.42997V8.68997H46.0663V10.75H43.5463V15.81C43.5463 16.61 44.0663 16.95 44.8663 16.95C45.3863 16.95 45.7663 16.89 46.0863 16.81V18.97C45.5463 19.17 44.9463 19.23 44.3463 19.23ZM51.9322 19.37C49.4122 19.37 47.4522 17.95 47.4522 15.75H49.8522C49.8522 16.91 50.7722 17.45 52.0122 17.45C53.0522 17.45 54.0722 17.05 54.0722 16.07C54.0722 15.51 53.6922 15.09 52.9922 14.99L50.4922 14.65C48.7722 14.41 47.7722 13.21 47.7722 11.93C47.7722 9.80997 49.6722 8.40997 52.0122 8.40997C54.2722 8.40997 56.1722 9.76997 56.1722 11.77H53.7922C53.7922 10.81 53.0322 10.29 52.0122 10.29C50.9322 10.29 50.1322 10.73 50.1322 11.57C50.1322 12.31 50.7722 12.55 51.3322 12.63L53.5522 12.93C55.1922 13.15 56.3922 14.25 56.3922 15.89C56.3922 18.21 54.3122 19.37 51.9322 19.37ZM62.6463 23.41V8.68997H64.8263L64.9663 9.98997C65.5463 8.92997 66.8063 8.40997 68.0863 8.40997C69.2863 8.40997 70.2463 8.78996 70.9463 9.42997C72.0663 10.45 72.5663 12.13 72.5663 13.87C72.5663 15.73 72.0063 17.39 70.8663 18.39C70.1663 19.01 69.2063 19.37 68.0263 19.37C66.5263 19.37 65.6463 18.71 65.1463 18.09V23.41H62.6463ZM67.5663 17.25C68.3263 17.25 68.8663 16.95 69.2263 16.51C69.7863 15.81 70.0263 14.93 70.0263 13.87C70.0263 12.91 69.8663 11.99 69.2863 11.31C68.8663 10.83 68.3663 10.51 67.5663 10.51C66.8063 10.51 66.3063 10.79 65.8663 11.27C65.2863 11.89 65.0863 12.79 65.0863 13.73C65.0863 14.85 65.2863 15.85 65.9063 16.53C66.2863 16.95 66.8263 17.25 67.5663 17.25ZM74.9119 19.09V8.68997H77.0919L77.2519 10.41C77.7319 9.08997 78.9719 8.54997 80.1919 8.54997C80.4519 8.54997 80.7119 8.56997 80.9719 8.60996V11.01C80.7719 10.95 80.4719 10.91 80.1719 10.91C78.3119 10.91 77.4319 12.11 77.4319 14.05V19.09H74.9119ZM82.8611 8.68997H85.4011V19.09H82.8611V8.68997ZM82.7811 4.62996H85.4811V7.20996H82.7811V4.62996ZM92.6699 19.37C90.9499 19.37 89.6699 18.63 88.9499 17.73C88.1499 16.75 87.7499 15.41 87.7499 13.89C87.7499 12.37 88.1499 11.01 88.9699 10.05C89.7099 9.16997 90.9499 8.40997 92.6699 8.40997C95.2099 8.40997 97.0499 9.96997 97.1699 12.33H94.7499C94.6499 11.21 93.9299 10.57 92.7299 10.57C91.9099 10.57 91.3699 10.87 91.0299 11.25C90.4099 11.93 90.2899 12.91 90.2899 13.89C90.2899 14.87 90.4099 15.85 91.0299 16.51C91.3899 16.89 91.9099 17.21 92.7299 17.21C93.9099 17.21 94.6499 16.53 94.7499 15.47H97.1699C97.0499 17.79 95.1299 19.37 92.6699 19.37ZM103.825 19.37C102.345 19.37 101.245 18.87 100.405 18.09C99.3446 17.09 98.7846 15.59 98.7846 13.89C98.7846 12.23 99.3446 10.73 100.385 9.72997C101.185 8.94997 102.265 8.40997 103.705 8.40997C106.705 8.40997 108.505 10.51 108.505 13.61C108.505 14.01 108.485 14.37 108.445 14.61H101.285C101.285 16.03 102.205 17.39 103.785 17.39C104.925 17.39 105.705 16.81 105.885 15.99H108.225C107.925 18.03 106.065 19.37 103.825 19.37ZM101.305 12.79H106.005C106.005 11.25 105.105 10.39 103.765 10.39C102.405 10.39 101.405 11.37 101.305 12.79ZM119.428 19.37C117.708 19.37 116.428 18.63 115.708 17.73C114.908 16.75 114.508 15.41 114.508 13.89C114.508 12.37 114.908 11.01 115.728 10.05C116.468 9.16997 117.708 8.40997 119.428 8.40997C121.968 8.40997 123.808 9.96997 123.928 12.33H121.508C121.408 11.21 120.688 10.57 119.488 10.57C118.668 10.57 118.128 10.87 117.788 11.25C117.168 11.93 117.048 12.91 117.048 13.89C117.048 14.87 117.168 15.85 117.788 16.51C118.148 16.89 118.668 17.21 119.488 17.21C120.668 17.21 121.408 16.53 121.508 15.47H123.928C123.808 17.79 121.888 19.37 119.428 19.37ZM126.142 4.60997H128.642V9.78997C129.242 8.88996 130.462 8.40997 131.542 8.40997C133.822 8.40997 135.122 10.01 135.122 12.15V19.09H132.622V12.61C132.622 11.41 132.082 10.71 130.842 10.71C129.342 10.71 128.642 12.25 128.642 13.57V19.09H126.142V4.60997ZM140.999 19.37C138.519 19.37 137.239 17.81 137.239 16.11C137.239 14.21 138.639 12.95 140.959 12.79L143.819 12.59V11.99C143.819 11.01 143.299 10.33 141.979 10.33C140.759 10.33 140.139 10.87 140.079 11.83H137.659C137.659 9.84997 139.439 8.40997 142.019 8.40997C144.699 8.40997 146.259 9.64997 146.259 12.33V16.51C146.259 16.99 146.479 17.17 146.899 17.17C147.019 17.17 147.139 17.15 147.219 17.13V18.97C146.899 19.15 146.539 19.25 145.979 19.25C144.899 19.25 144.239 18.63 144.079 17.73C143.599 18.57 142.479 19.37 140.999 19.37ZM141.339 17.37C143.039 17.37 143.819 16.25 143.819 14.89V14.43L141.419 14.61C140.419 14.69 139.679 15.07 139.679 16.01C139.679 16.81 140.299 17.37 141.339 17.37ZM149.345 19.09V8.68997H151.525L151.685 10.41C152.165 9.08997 153.405 8.54997 154.625 8.54997C154.885 8.54997 155.145 8.56997 155.405 8.60996V11.01C155.205 10.95 154.905 10.91 154.605 10.91C152.745 10.91 151.865 12.11 151.865 14.05V19.09H149.345ZM161.69 19.23C159.59 19.23 158.39 18.17 158.39 16.17V10.75H156.41V8.68997H158.39V6.04997L160.89 5.42997V8.68997H163.41V10.75H160.89V15.81C160.89 16.61 161.41 16.95 162.21 16.95C162.73 16.95 163.11 16.89 163.43 16.81V18.97C162.89 19.17 162.29 19.23 161.69 19.23Z" fill="white"/>
<path d="M4.00001 42.512C2.48801 40.818 1.69001 38.382 1.69001 36.198C1.69001 34.014 2.48801 31.578 4.00001 29.884L4.43402 30.22C3.06201 31.984 2.34801 33.902 2.34801 36.198C2.34801 38.494 3.06201 40.412 4.43402 42.176L4.00001 42.512ZM8.17814 40.916C6.59614 40.916 5.68614 39.81 5.68614 38.242V33.72H6.38614V38.2C6.38614 39.418 6.98814 40.23 8.22014 40.23C9.84414 40.23 10.5161 38.928 10.5161 37.36V33.72H11.2161V40.72H10.5721L10.5161 39.404C10.1241 40.328 9.22814 40.916 8.17814 40.916ZM13.8229 40.72V33.72H14.4669L14.5229 35.064C14.8869 34.098 15.9789 33.524 16.9589 33.524C18.5549 33.524 19.4369 34.588 19.4369 36.142V40.72H18.7369V36.212C18.7369 35.036 18.1349 34.21 16.8889 34.21C15.3349 34.21 14.5229 35.498 14.5229 37.052V40.72H13.8229ZM21.9576 33.72H22.6716V40.72H21.9576V33.72ZM21.8316 30.794H22.7836V31.83H21.8316V30.794ZM27.8842 40.818C26.5122 40.818 25.9802 40.02 25.9802 38.9V34.364H24.3282V33.72H25.9802V31.788L26.6802 31.62V33.72H28.8782V34.364H26.6802V38.802C26.6802 39.572 26.9182 40.16 27.9402 40.16C28.3182 40.16 28.6122 40.118 28.9762 40.034V40.65C28.6262 40.762 28.2762 40.818 27.8842 40.818ZM30.065 42.512L29.631 42.176C31.003 40.412 31.717 38.494 31.717 36.198C31.717 33.902 31.003 31.984 29.631 30.22L30.065 29.884C31.577 31.578 32.375 34.014 32.375 36.198C32.375 38.382 31.577 40.818 30.065 42.512Z" fill="white"/>
<path d="M10.296 260.412C10.296 261.28 9.97402 261.854 9.51202 262.316C8.84002 262.974 7.84602 263.282 6.69802 263.282C5.56402 263.282 4.58402 262.918 3.92602 262.218C3.43602 261.7 3.10002 261 3.03002 260.244H3.78602C3.85602 260.832 4.13602 261.378 4.51402 261.77C5.04602 262.316 5.87202 262.582 6.69802 262.582C7.55202 262.582 8.40602 262.358 8.95202 261.84C9.30202 261.504 9.54002 261.042 9.54002 260.412C9.54002 259.46 8.79802 258.634 7.60802 258.48L5.76002 258.242C4.36002 258.06 3.32402 257.262 3.32402 255.736C3.32402 254.91 3.68802 254.322 4.19202 253.86C4.80802 253.3 5.71802 252.992 6.64202 252.992C7.70602 252.992 8.77002 253.426 9.33002 254.084C9.75002 254.574 10.03 255.092 10.086 255.806H9.34402C9.27402 255.302 9.12002 254.924 8.79802 254.546C8.36402 254.014 7.55202 253.692 6.64202 253.692C5.92802 253.692 5.24202 253.874 4.75202 254.294C4.37402 254.63 4.08002 255.092 4.08002 255.736C4.08002 256.912 4.92002 257.36 5.83002 257.472L7.70602 257.71C9.24602 257.906 10.296 259.012 10.296 260.412ZM17.899 259.6C17.899 260.79 17.633 261.714 16.905 262.442C16.415 262.932 15.729 263.282 14.861 263.282C13.993 263.282 13.307 262.932 12.817 262.442C12.089 261.714 11.823 260.79 11.823 259.6C11.823 258.41 12.089 257.486 12.817 256.758C13.307 256.268 13.993 255.918 14.861 255.918C15.729 255.918 16.415 256.268 16.905 256.758C17.633 257.486 17.899 258.41 17.899 259.6ZM17.185 259.6C17.185 258.69 17.031 257.878 16.401 257.22C16.037 256.842 15.533 256.604 14.861 256.604C14.189 256.604 13.685 256.842 13.321 257.22C12.691 257.878 12.537 258.69 12.537 259.6C12.537 260.51 12.691 261.322 13.321 261.98C13.685 262.358 14.189 262.596 14.861 262.596C15.533 262.596 16.037 262.358 16.401 261.98C17.031 261.322 17.185 260.51 17.185 259.6ZM25.4576 263.086H24.8416L24.7576 261.812C24.3656 262.708 23.3716 263.268 22.3916 263.268C20.7816 263.268 19.9276 262.274 19.9276 260.706V256.086H20.6276V260.664C20.6276 261.882 21.1596 262.582 22.4336 262.582C24.1556 262.582 24.7576 261.098 24.7576 259.586V256.086H25.4576V263.086ZM31.8417 256.772C31.6177 256.716 31.3797 256.702 31.1557 256.702C29.4057 256.702 28.9297 258.27 28.9297 259.74V263.1H28.2297V256.1H28.8457L28.9297 257.514C29.2377 256.548 30.1757 256.03 31.1557 256.03C31.3797 256.03 31.6177 256.03 31.8417 256.072V256.772ZM38.4816 260.888C38.2996 262.246 37.2216 263.282 35.7516 263.282C34.8836 263.282 34.1836 262.946 33.6936 262.456C32.9656 261.728 32.7136 260.79 32.7136 259.6C32.7136 258.41 32.9656 257.472 33.6936 256.744C34.1836 256.254 34.8836 255.918 35.7516 255.918C37.2076 255.918 38.2856 256.87 38.4536 258.284H37.7256C37.5716 257.318 36.8156 256.604 35.7516 256.604C35.0796 256.604 34.5616 256.828 34.1976 257.206C33.5676 257.864 33.4276 258.69 33.4276 259.6C33.4276 260.51 33.5676 261.35 34.1976 262.008C34.5616 262.386 35.0796 262.596 35.7516 262.596C36.8296 262.596 37.5716 261.84 37.7396 260.888H38.4816ZM45.9397 259.306C45.9397 259.474 45.9257 259.6 45.9257 259.768H40.5777C40.5917 260.58 40.8577 261.336 41.3057 261.868C41.6977 262.33 42.2437 262.61 42.9997 262.61C43.6157 262.61 44.1477 262.386 44.5257 261.994C44.7777 261.728 44.9737 261.42 45.0577 261H45.7857C45.6877 261.602 45.3937 262.092 45.0017 262.47C44.4977 262.974 43.7977 263.282 42.9997 263.282C41.9917 263.282 41.2777 262.862 40.7737 262.288C40.1997 261.616 39.8777 260.692 39.8777 259.628C39.8777 258.746 40.0177 257.878 40.5637 257.136C41.1517 256.338 41.9637 255.918 42.9437 255.918C44.8337 255.918 45.9397 257.542 45.9397 259.306ZM45.2257 259.124C45.1977 257.794 44.3717 256.576 42.9437 256.576C41.5017 256.576 40.5917 257.738 40.5917 259.124H45.2257ZM49.3426 257.304H48.1806V256.1H49.3426V257.304ZM49.3426 263.1H48.1806V261.896H49.3426V263.1ZM60.7452 260.412C60.7452 261.28 60.4232 261.854 59.9612 262.316C59.2892 262.974 58.2952 263.282 57.1472 263.282C56.0132 263.282 55.0332 262.918 54.3752 262.218C53.8852 261.7 53.5492 261 53.4792 260.244H54.2352C54.3052 260.832 54.5852 261.378 54.9632 261.77C55.4952 262.316 56.3212 262.582 57.1472 262.582C58.0012 262.582 58.8552 262.358 59.4012 261.84C59.7512 261.504 59.9892 261.042 59.9892 260.412C59.9892 259.46 59.2472 258.634 58.0572 258.48L56.2092 258.242C54.8092 258.06 53.7732 257.262 53.7732 255.736C53.7732 254.91 54.1372 254.322 54.6412 253.86C55.2572 253.3 56.1672 252.992 57.0912 252.992C58.1552 252.992 59.2192 253.426 59.7792 254.084C60.1992 254.574 60.4792 255.092 60.5352 255.806H59.7932C59.7232 255.302 59.5692 254.924 59.2472 254.546C58.8132 254.014 58.0012 253.692 57.0912 253.692C56.3772 253.692 55.6912 253.874 55.2012 254.294C54.8232 254.63 54.5292 255.092 54.5292 255.736C54.5292 256.912 55.3692 257.36 56.2792 257.472L58.1552 257.71C59.6952 257.906 60.7452 259.012 60.7452 260.412ZM70.8262 258.172H69.7622C69.7482 259.222 69.6222 260.538 69.0482 261.364L70.6022 263.1H69.7062L68.6702 261.924C67.9562 262.75 66.9342 263.296 65.6882 263.296C64.0642 263.296 62.7482 262.204 62.7482 260.496C62.7482 259.502 63.2522 258.662 64.1062 258.158L64.8902 257.696L64.1622 256.884C63.6862 256.352 63.4762 255.82 63.4762 255.19C63.4762 253.958 64.4562 252.978 65.8142 252.978C67.1302 252.978 68.1942 253.832 68.1942 255.19C68.1942 256.142 67.7322 256.786 66.9762 257.234L65.9402 257.85L68.5722 260.832C68.9782 260.104 69.0902 259.222 69.0902 258.144V257.542H70.8262V258.172ZM67.5082 255.19C67.5082 254.238 66.7802 253.622 65.8142 253.622C64.9322 253.622 64.1762 254.238 64.1762 255.19C64.1762 255.68 64.4282 256.142 64.7642 256.534L65.4922 257.374L66.6262 256.674C67.1722 256.338 67.5082 255.806 67.5082 255.19ZM68.1802 261.392L65.3382 258.2L64.5542 258.662C63.8822 259.054 63.4622 259.712 63.4622 260.496C63.4622 261.756 64.4702 262.596 65.6882 262.596C66.8082 262.596 67.5922 262.134 68.1802 261.392ZM79.8107 256.1C79.8107 258.102 78.4107 259.026 76.5067 259.026H73.7907V263.1H73.0627V253.174H76.5067C78.4107 253.174 79.8107 254.098 79.8107 256.1ZM79.0547 256.1C79.0547 254.546 77.9627 253.874 76.5067 253.874H73.7907V258.326H76.5067C77.9627 258.326 79.0547 257.654 79.0547 256.1ZM91.3518 263.1H90.8058L90.6518 261.574C90.1338 262.638 88.9438 263.282 87.7538 263.282C86.6898 263.282 85.7518 262.848 85.1358 262.232C84.0718 261.182 83.8758 259.558 83.8758 258.144C83.8758 256.716 84.0578 255.134 85.1358 254.07C85.7658 253.454 86.6898 252.992 87.7538 252.992C89.7978 252.992 91.1978 254.238 91.3378 255.946H90.5958C90.5398 255.302 90.3018 254.868 89.9378 254.462C89.4198 253.902 88.6218 253.706 87.7678 253.706C86.9138 253.706 86.2278 254.014 85.7098 254.518C84.7858 255.428 84.6318 256.926 84.6318 258.144C84.6318 259.348 84.7858 260.916 85.7238 261.798C86.2558 262.302 86.9418 262.568 87.7538 262.568C88.5518 262.568 89.2938 262.26 89.7418 261.784C90.5398 260.944 90.6098 259.768 90.6098 258.676H87.6838V257.962H91.3518V263.1ZM95.87 263.1C95.716 263.142 95.534 263.184 95.24 263.184C94.344 263.184 93.84 262.722 93.84 261.7V252.992H94.54V261.672C94.54 262.148 94.68 262.512 95.268 262.512C95.548 262.512 95.674 262.512 95.87 262.484V263.1ZM103.198 259.6C103.198 260.79 102.932 261.714 102.204 262.442C101.714 262.932 101.028 263.282 100.16 263.282C99.2918 263.282 98.6058 262.932 98.1158 262.442C97.3878 261.714 97.1218 260.79 97.1218 259.6C97.1218 258.41 97.3878 257.486 98.1158 256.758C98.6058 256.268 99.2918 255.918 100.16 255.918C101.028 255.918 101.714 256.268 102.204 256.758C102.932 257.486 103.198 258.41 103.198 259.6ZM102.484 259.6C102.484 258.69 102.33 257.878 101.7 257.22C101.336 256.842 100.832 256.604 100.16 256.604C99.4878 256.604 98.9838 256.842 98.6198 257.22C97.9898 257.878 97.8358 258.69 97.8358 259.6C97.8358 260.51 97.9898 261.322 98.6198 261.98C98.9838 262.358 99.4878 262.596 100.16 262.596C100.832 262.596 101.336 262.358 101.7 261.98C102.33 261.322 102.484 260.51 102.484 259.6ZM111.4 259.614C111.4 260.818 111.036 261.938 110.252 262.624C109.79 263.03 109.188 263.282 108.39 263.282C107.452 263.282 106.444 262.736 106.066 261.868L105.982 263.1H105.366V252.992H106.066V257.276C106.444 256.478 107.41 255.918 108.404 255.918C109.216 255.918 109.846 256.198 110.308 256.646C111.05 257.346 111.4 258.466 111.4 259.614ZM110.686 259.6C110.686 258.704 110.448 257.808 109.902 257.22C109.538 256.842 109.062 256.604 108.404 256.604C107.76 256.604 107.284 256.814 106.934 257.15C106.29 257.752 106.052 258.564 106.052 259.6C106.052 260.566 106.318 261.42 106.948 262.036C107.298 262.372 107.76 262.596 108.376 262.596C108.964 262.596 109.412 262.414 109.762 262.106C110.406 261.532 110.686 260.594 110.686 259.6ZM119.338 263.1C119.17 263.128 119.17 263.142 119.002 263.142C118.134 263.142 117.896 262.512 117.896 261.77C117.518 262.764 116.454 263.282 115.376 263.282C114.018 263.282 112.968 262.47 112.968 261.126C112.968 259.88 113.934 259.138 115.32 259.04L117.896 258.858V258.172C117.896 257.01 117.112 256.576 116.048 256.576C114.942 256.576 114.102 257.08 114.032 258.116H113.332C113.43 256.702 114.536 255.918 116.048 255.918C117 255.918 118.036 256.24 118.414 257.206C118.582 257.64 118.596 258.088 118.596 258.55V261.742C118.596 262.218 118.666 262.498 119.142 262.498C119.226 262.498 119.268 262.498 119.338 262.484V263.1ZM117.896 259.866V259.502L115.39 259.656C114.354 259.726 113.682 260.272 113.682 261.126C113.682 262.134 114.438 262.638 115.432 262.638C117.196 262.638 117.896 261.21 117.896 259.866ZM123.378 263.1C123.224 263.142 123.042 263.184 122.748 263.184C121.852 263.184 121.348 262.722 121.348 261.7V252.992H122.048V261.672C122.048 262.148 122.188 262.512 122.776 262.512C123.056 262.512 123.182 262.512 123.378 262.484V263.1ZM135.042 260.062C134.888 261.896 133.488 263.282 131.514 263.282C130.562 263.282 129.582 262.89 128.896 262.204C127.832 261.126 127.734 259.544 127.734 258.13C127.734 256.716 127.832 255.148 128.896 254.07C129.582 253.384 130.562 252.992 131.514 252.992C133.488 252.992 134.888 254.378 135.042 256.212H134.286C134.16 254.742 133.082 253.706 131.514 253.706C130.632 253.706 129.96 254.014 129.428 254.56C128.532 255.484 128.49 256.94 128.49 258.13C128.49 259.32 128.546 260.79 129.442 261.714C129.988 262.274 130.688 262.568 131.514 262.568C133.082 262.568 134.16 261.532 134.286 260.062H135.042ZM142.504 259.6C142.504 260.79 142.238 261.714 141.51 262.442C141.02 262.932 140.334 263.282 139.466 263.282C138.598 263.282 137.912 262.932 137.422 262.442C136.694 261.714 136.428 260.79 136.428 259.6C136.428 258.41 136.694 257.486 137.422 256.758C137.912 256.268 138.598 255.918 139.466 255.918C140.334 255.918 141.02 256.268 141.51 256.758C142.238 257.486 142.504 258.41 142.504 259.6ZM141.79 259.6C141.79 258.69 141.636 257.878 141.006 257.22C140.642 256.842 140.138 256.604 139.466 256.604C138.794 256.604 138.29 256.842 137.926 257.22C137.296 257.878 137.142 258.69 137.142 259.6C137.142 260.51 137.296 261.322 137.926 261.98C138.29 262.358 138.794 262.596 139.466 262.596C140.138 262.596 140.642 262.358 141.006 261.98C141.636 261.322 141.79 260.51 141.79 259.6ZM154.291 263.1H153.591V258.522C153.591 257.304 153.143 256.576 151.925 256.576C151.393 256.576 151.001 256.758 150.679 257.052C150.133 257.57 149.853 258.298 149.853 259.138V263.1H149.139V258.522C149.139 257.304 148.677 256.576 147.459 256.576C146.927 256.576 146.521 256.758 146.213 257.052C145.583 257.64 145.373 258.606 145.373 259.6V263.1H144.673V256.1H145.289L145.373 257.304C145.737 256.506 146.493 255.918 147.501 255.918C148.719 255.918 149.433 256.52 149.713 257.43C150.077 256.562 150.819 255.918 151.967 255.918C153.605 255.918 154.291 256.982 154.291 258.48V263.1ZM166.541 263.1H165.841V258.522C165.841 257.304 165.393 256.576 164.175 256.576C163.643 256.576 163.251 256.758 162.929 257.052C162.383 257.57 162.103 258.298 162.103 259.138V263.1H161.389V258.522C161.389 257.304 160.927 256.576 159.709 256.576C159.177 256.576 158.771 256.758 158.463 257.052C157.833 257.64 157.623 258.606 157.623 259.6V263.1H156.923V256.1H157.539L157.623 257.304C157.987 256.506 158.743 255.918 159.751 255.918C160.969 255.918 161.683 256.52 161.963 257.43C162.327 256.562 163.069 255.918 164.217 255.918C165.855 255.918 166.541 256.982 166.541 258.48V263.1ZM174.647 259.6C174.647 260.79 174.381 261.714 173.653 262.442C173.163 262.932 172.477 263.282 171.609 263.282C170.741 263.282 170.055 262.932 169.565 262.442C168.837 261.714 168.571 260.79 168.571 259.6C168.571 258.41 168.837 257.486 169.565 256.758C170.055 256.268 170.741 255.918 171.609 255.918C172.477 255.918 173.163 256.268 173.653 256.758C174.381 257.486 174.647 258.41 174.647 259.6ZM173.933 259.6C173.933 258.69 173.779 257.878 173.149 257.22C172.785 256.842 172.281 256.604 171.609 256.604C170.937 256.604 170.433 256.842 170.069 257.22C169.439 257.878 169.285 258.69 169.285 259.6C169.285 260.51 169.439 261.322 170.069 261.98C170.433 262.358 170.937 262.596 171.609 262.596C172.281 262.596 172.785 262.358 173.149 261.98C173.779 261.322 173.933 260.51 173.933 259.6ZM182.22 263.1H181.604L181.52 261.868C181.142 262.736 180.134 263.282 179.196 263.282C178.398 263.282 177.796 263.03 177.334 262.624C176.55 261.938 176.186 260.818 176.186 259.614C176.186 258.466 176.536 257.346 177.278 256.646C177.74 256.198 178.37 255.918 179.182 255.918C180.176 255.918 181.142 256.478 181.52 257.276V252.992H182.22V263.1ZM181.534 259.6C181.534 258.564 181.296 257.752 180.652 257.15C180.302 256.814 179.826 256.604 179.182 256.604C178.524 256.604 178.048 256.842 177.684 257.22C177.138 257.808 176.9 258.704 176.9 259.6C176.9 260.594 177.18 261.532 177.824 262.106C178.174 262.414 178.622 262.596 179.21 262.596C179.826 262.596 180.288 262.372 180.638 262.036C181.268 261.42 181.534 260.566 181.534 259.6ZM185.915 254.154H184.935V253.174H185.915V254.154ZM185.803 263.1H185.061V256.1H185.803V263.1ZM191.946 263.03C191.554 263.114 191.176 263.198 190.784 263.198C189.482 263.198 188.978 262.372 188.978 261.154V256.744H187.578V256.1H188.978V254.168L189.678 254V256.1H191.848V256.744H189.678V261.126C189.678 261.952 189.902 262.54 190.84 262.54C191.218 262.54 191.568 262.484 191.946 262.414V263.03ZM198.962 256.1L195.714 264.598C195.378 265.48 194.804 266.026 193.824 266.026C193.558 266.026 193.194 265.998 192.942 265.9V265.312C193.222 265.354 193.516 265.396 193.796 265.396C194.468 265.396 194.846 264.948 195.07 264.36L195.518 263.212L192.648 256.1H193.404L195.854 262.316L198.206 256.1H198.962ZM204.385 263.1H203.643V253.174H204.385V263.1ZM212.807 263.1H212.107V258.522C212.107 257.304 211.575 256.604 210.301 256.604C208.579 256.604 207.977 258.088 207.977 259.6V263.1H207.277V256.1H207.893L207.977 257.374C208.369 256.492 209.363 255.918 210.343 255.918C211.953 255.918 212.807 256.912 212.807 258.48V263.1ZM220.437 261.154C220.437 261.672 220.269 262.092 219.961 262.442C219.457 263.002 218.617 263.282 217.693 263.282C216.741 263.282 215.929 262.988 215.397 262.386C215.005 261.938 214.837 261.546 214.809 260.972H215.523C215.565 261.392 215.747 261.756 216.041 262.05C216.447 262.442 217.021 262.61 217.693 262.61C218.421 262.61 218.995 262.442 219.345 262.092C219.597 261.84 219.723 261.602 219.723 261.196C219.723 260.566 219.275 260.034 218.435 259.922L217.077 259.74C216.503 259.67 215.887 259.488 215.495 259.04C215.243 258.746 215.103 258.382 215.103 257.934C215.103 257.374 215.341 256.912 215.705 256.576C216.209 256.114 216.895 255.918 217.623 255.918C218.463 255.918 219.261 256.184 219.737 256.744C220.059 257.122 220.255 257.584 220.269 258.032H219.569C219.541 257.808 219.443 257.458 219.219 257.192C218.897 256.814 218.351 256.576 217.623 256.576C217.077 256.576 216.671 256.674 216.363 256.898C216.013 257.15 215.817 257.486 215.817 257.864C215.817 258.452 216.111 258.9 217.175 259.04L218.505 259.222C219.821 259.404 220.437 260.3 220.437 261.154ZM223.527 254.154H222.547V253.174H223.527V254.154ZM223.415 263.1H222.673V256.1H223.415V263.1ZM232.049 264.15C232.049 264.696 231.825 265.13 231.517 265.452C230.915 266.068 229.865 266.278 228.745 266.278C227.681 266.278 226.729 266.068 226.141 265.466C225.833 265.144 225.651 264.738 225.651 264.206C225.651 263.534 226.043 262.876 226.701 262.568C226.211 262.428 225.819 261.91 225.819 261.42C225.819 260.818 226.127 260.398 226.659 260.09C226.225 259.67 225.959 259.096 225.959 258.368C225.959 256.856 227.107 255.918 228.577 255.918C229.193 255.918 229.753 256.086 230.215 256.394C230.397 255.792 230.999 255.442 231.629 255.442C231.713 255.442 231.811 255.47 231.895 255.47V256.072C231.811 256.072 231.713 256.044 231.629 256.044C231.125 256.044 230.761 256.324 230.663 256.8C231.013 257.206 231.223 257.738 231.223 258.368C231.223 259.88 230.047 260.79 228.577 260.79C228.059 260.79 227.583 260.678 227.177 260.468C226.813 260.608 226.477 260.902 226.477 261.336C226.477 261.672 226.687 261.882 226.967 261.994C227.219 262.092 227.639 262.106 227.905 262.106H229.431C230.327 262.106 231.041 262.33 231.489 262.792C231.825 263.128 232.049 263.534 232.049 264.15ZM230.523 258.368C230.523 257.248 229.669 256.548 228.577 256.548C227.485 256.548 226.645 257.248 226.645 258.368C226.645 259.488 227.485 260.16 228.577 260.16C229.669 260.16 230.523 259.488 230.523 258.368ZM231.349 264.15C231.349 263.758 231.223 263.506 231.013 263.282C230.691 262.946 230.145 262.764 229.319 262.764H227.471C226.883 262.904 226.309 263.38 226.309 264.206C226.309 264.57 226.463 264.878 226.687 265.088C227.191 265.564 228.059 265.648 228.759 265.648C229.459 265.648 230.453 265.564 230.985 265.032C231.195 264.822 231.349 264.514 231.349 264.15ZM239.234 263.1H238.534V258.522C238.534 257.304 238.002 256.576 236.728 256.576C235.006 256.576 234.404 258.088 234.404 259.6V263.1H233.704V252.992H234.404V257.388C234.796 256.492 235.79 255.918 236.77 255.918C238.38 255.918 239.234 256.912 239.234 258.48V263.1ZM245.116 263.03C244.724 263.114 244.346 263.198 243.954 263.198C242.652 263.198 242.148 262.372 242.148 261.154V256.744H240.748V256.1H242.148V254.168L242.848 254V256.1H245.018V256.744H242.848V261.126C242.848 261.952 243.072 262.54 244.01 262.54C244.388 262.54 244.738 262.484 245.116 262.414V263.03ZM251.978 261.154C251.978 261.672 251.81 262.092 251.502 262.442C250.998 263.002 250.158 263.282 249.234 263.282C248.282 263.282 247.47 262.988 246.938 262.386C246.546 261.938 246.378 261.546 246.35 260.972H247.064C247.106 261.392 247.288 261.756 247.582 262.05C247.988 262.442 248.562 262.61 249.234 262.61C249.962 262.61 250.536 262.442 250.886 262.092C251.138 261.84 251.264 261.602 251.264 261.196C251.264 260.566 250.816 260.034 249.976 259.922L248.618 259.74C248.044 259.67 247.428 259.488 247.036 259.04C246.784 258.746 246.644 258.382 246.644 257.934C246.644 257.374 246.882 256.912 247.246 256.576C247.75 256.114 248.436 255.918 249.164 255.918C250.004 255.918 250.802 256.184 251.278 256.744C251.6 257.122 251.796 257.584 251.81 258.032H251.11C251.082 257.808 250.984 257.458 250.76 257.192C250.438 256.814 249.892 256.576 249.164 256.576C248.618 256.576 248.212 256.674 247.904 256.898C247.554 257.15 247.358 257.486 247.358 257.864C247.358 258.452 247.652 258.9 248.716 259.04L250.046 259.222C251.362 259.404 251.978 260.3 251.978 261.154Z" fill="white"/>
<path d="M15.504 220.68H14.704V210.552L11.936 212.584V211.688L14.784 209.56H15.504V220.68ZM27.253 215.112C27.253 216.856 27.093 218.888 25.941 219.992C25.429 220.488 24.709 220.888 23.685 220.888C22.661 220.888 21.941 220.488 21.429 219.992C20.277 218.888 20.117 216.856 20.117 215.112C20.117 213.368 20.277 211.336 21.429 210.232C21.941 209.736 22.661 209.352 23.685 209.352C24.709 209.352 25.429 209.736 25.941 210.232C27.093 211.336 27.253 213.368 27.253 215.112ZM26.437 215.112C26.437 213.672 26.405 211.72 25.397 210.744C24.997 210.36 24.469 210.104 23.685 210.104C22.901 210.104 22.373 210.36 21.973 210.744C20.965 211.72 20.933 213.672 20.933 215.112C20.933 216.552 20.965 218.504 21.973 219.48C22.373 219.864 22.901 220.12 23.685 220.12C24.469 220.12 24.997 219.864 25.397 219.48C26.405 218.504 26.437 216.552 26.437 215.112Z" fill="white"/>
<path d="M18.048 181H11.6V180.136L16.048 174.584C16.496 174.024 16.944 173.176 16.944 172.44C16.944 171.144 15.984 170.424 14.768 170.424C13.248 170.424 12.432 171.48 12.432 172.952H11.584C11.584 171.048 12.784 169.672 14.768 169.672C16.496 169.672 17.744 170.712 17.744 172.44C17.744 173.384 17.232 174.344 16.656 175.048L12.496 180.232H18.048V181ZM27.253 175.432C27.253 177.176 27.093 179.208 25.941 180.312C25.429 180.808 24.709 181.208 23.685 181.208C22.661 181.208 21.941 180.808 21.429 180.312C20.277 179.208 20.117 177.176 20.117 175.432C20.117 173.688 20.277 171.656 21.429 170.552C21.941 170.056 22.661 169.672 23.685 169.672C24.709 169.672 25.429 170.056 25.941 170.552C27.093 171.656 27.253 173.688 27.253 175.432ZM26.437 175.432C26.437 173.992 26.405 172.04 25.397 171.064C24.997 170.68 24.469 170.424 23.685 170.424C22.901 170.424 22.373 170.68 21.973 171.064C20.965 172.04 20.933 173.992 20.933 175.432C20.933 176.872 20.965 178.824 21.973 179.8C22.373 180.184 22.901 180.44 23.685 180.44C24.469 180.44 24.997 180.184 25.397 179.8C26.405 178.824 26.437 176.872 26.437 175.432Z" fill="white"/>
<path d="M17.824 138.408C17.824 140.28 16.272 141.528 14.384 141.528C12.256 141.528 11.008 140.056 10.976 138.088H11.792C11.808 139.528 12.64 140.76 14.384 140.76C15.952 140.76 16.992 139.848 16.992 138.408C16.992 136.744 15.968 135.912 14.368 135.912H13.776V135.144H14.368C15.808 135.144 16.752 134.392 16.752 132.904C16.752 131.592 15.68 130.744 14.432 130.744C12.896 130.744 11.888 131.736 11.872 133.256H11.04C11.072 131.272 12.496 129.992 14.432 129.992C16.144 129.992 17.584 131.112 17.584 132.904C17.584 134.104 16.976 135.176 15.776 135.528C17.088 135.896 17.824 137.08 17.824 138.408ZM27.253 135.752C27.253 137.496 27.093 139.528 25.941 140.632C25.429 141.128 24.709 141.528 23.685 141.528C22.661 141.528 21.941 141.128 21.429 140.632C20.277 139.528 20.117 137.496 20.117 135.752C20.117 134.008 20.277 131.976 21.429 130.872C21.941 130.376 22.661 129.992 23.685 129.992C24.709 129.992 25.429 130.376 25.941 130.872C27.093 131.976 27.253 134.008 27.253 135.752ZM26.437 135.752C26.437 134.312 26.405 132.36 25.397 131.384C24.997 131 24.469 130.744 23.685 130.744C22.901 130.744 22.373 131 21.973 131.384C20.965 132.36 20.933 134.312 20.933 135.752C20.933 137.192 20.965 139.144 21.973 140.12C22.373 140.504 22.901 140.76 23.685 140.76C24.469 140.76 24.997 140.504 25.397 140.12C26.405 139.144 26.437 137.192 26.437 135.752Z" fill="white"/>
<path d="M18.496 99.096H16.944V101.64H16.128V99.096H10.88V98.216L15.408 90.52H16.32L11.744 98.296H16.128V94.856H16.944V98.296H18.496V99.096ZM27.253 96.072C27.253 97.816 27.093 99.848 25.941 100.952C25.429 101.448 24.709 101.848 23.685 101.848C22.661 101.848 21.941 101.448 21.429 100.952C20.277 99.848 20.117 97.816 20.117 96.072C20.117 94.328 20.277 92.296 21.429 91.192C21.941 90.696 22.661 90.312 23.685 90.312C24.709 90.312 25.429 90.696 25.941 91.192C27.093 92.296 27.253 94.328 27.253 96.072ZM26.437 96.072C26.437 94.632 26.405 92.68 25.397 91.704C24.997 91.32 24.469 91.064 23.685 91.064C22.901 91.064 22.373 91.32 21.973 91.704C20.965 92.68 20.933 94.632 20.933 96.072C20.933 97.512 20.965 99.464 21.973 100.44C22.373 100.824 22.901 101.08 23.685 101.08C24.469 101.08 24.997 100.824 25.397 100.44C26.405 99.464 26.437 97.512 26.437 96.072Z" fill="white"/>
<path d="M18.144 58.472C18.144 60.552 17.04 62.184 14.72 62.184C12.624 62.184 11.296 60.696 11.248 58.744H12.064C12.128 60.328 13.12 61.416 14.72 61.416C16.48 61.416 17.328 60.216 17.328 58.472C17.328 56.856 16.576 55.528 14.848 55.528C13.904 55.528 12.976 55.912 12.464 56.744H11.472L11.728 50.84H17.776V51.592H12.496L12.272 56.008C12.816 55.128 13.856 54.776 14.848 54.776C17.056 54.776 18.144 56.36 18.144 58.472ZM27.253 56.392C27.253 58.136 27.093 60.168 25.941 61.272C25.429 61.768 24.709 62.168 23.685 62.168C22.661 62.168 21.941 61.768 21.429 61.272C20.277 60.168 20.117 58.136 20.117 56.392C20.117 54.648 20.277 52.616 21.429 51.512C21.941 51.016 22.661 50.632 23.685 50.632C24.709 50.632 25.429 51.016 25.941 51.512C27.093 52.616 27.253 54.648 27.253 56.392ZM26.437 56.392C26.437 54.952 26.405 53 25.397 52.024C24.997 51.64 24.469 51.384 23.685 51.384C22.901 51.384 22.373 51.64 21.973 52.024C20.965 53 20.933 54.952 20.933 56.392C20.933 57.832 20.965 59.784 21.973 60.76C22.373 61.144 22.901 61.4 23.685 61.4C24.469 61.4 24.997 61.144 25.397 60.76C26.405 59.784 26.437 57.832 26.437 56.392Z" fill="white"/>
<path d="M35.4293 216.09H342.79" stroke="#D1D3D4" stroke-width="0.41" stroke-miterlimit="10"/>
<path d="M35.4293 176.41H342.79" stroke="#D1D3D4" stroke-width="0.41" stroke-miterlimit="10"/>
<path d="M35.4293 136.73H342.79" stroke="#D1D3D4" stroke-width="0.41" stroke-miterlimit="10"/>
<path d="M35.4293 97.05H342.79" stroke="#D1D3D4" stroke-width="0.41" stroke-miterlimit="10"/>
<path d="M35.4293 57.37H342.79" stroke="#D1D3D4" stroke-width="0.41" stroke-miterlimit="10"/>
<path d="M130.714 176.41L74.11 216.09" stroke="#F1A649" stroke-width="3" stroke-linecap="round" stroke-linejoin="round"/>
<path d="M187.31 136.73L130.714 176.41" stroke="#F1A649" stroke-width="3" stroke-linecap="round" stroke-linejoin="round"/>
<path d="M243.914 97.05L187.31 136.73" stroke="#F1A649" stroke-width="3" stroke-linecap="round" stroke-linejoin="round"/>
<path d="M300.51 57.37L243.914 97.05" stroke="#F1A649" stroke-width="3" stroke-linecap="round" stroke-linejoin="round"/>
<path d="M298.605 237.37H297.789V227.226L293.645 237.21H292.909L288.765 227.306V237.37H287.949V226.026H289.117L293.309 236.106L297.421 226.026H298.605V237.37ZM308.539 237.37C308.347 237.402 308.347 237.418 308.155 237.418C307.163 237.418 306.891 236.698 306.891 235.85C306.459 236.986 305.243 237.578 304.011 237.578C302.459 237.578 301.259 236.65 301.259 235.114C301.259 233.69 302.363 232.842 303.947 232.73L306.891 232.522V231.738C306.891 230.41 305.995 229.914 304.779 229.914C303.515 229.914 302.555 230.49 302.475 231.674H301.675C301.787 230.058 303.051 229.162 304.779 229.162C305.867 229.162 307.051 229.53 307.483 230.634C307.675 231.13 307.691 231.642 307.691 232.17V235.818C307.691 236.362 307.771 236.682 308.315 236.682C308.411 236.682 308.459 236.682 308.539 236.666V237.37ZM306.891 233.674V233.258L304.027 233.434C302.843 233.514 302.075 234.138 302.075 235.114C302.075 236.266 302.939 236.842 304.075 236.842C306.091 236.842 306.891 235.21 306.891 233.674ZM316.615 229.37L312.903 239.082C312.519 240.09 311.863 240.714 310.743 240.714C310.439 240.714 310.023 240.682 309.735 240.57V239.898C310.055 239.946 310.391 239.994 310.711 239.994C311.479 239.994 311.911 239.482 312.167 238.81L312.679 237.498L309.399 229.37H310.263L313.063 236.474L315.751 229.37H316.615Z" fill="white"/>
<path d="M241.244 237.37H240.396L239.244 234.378H233.756L232.636 237.37H231.772L236.076 226.026H236.892L241.244 237.37ZM238.94 233.594L236.476 227.178L234.06 233.594H238.94ZM249.858 233.354C249.858 234.666 249.458 235.946 248.61 236.746C248.082 237.258 247.362 237.578 246.434 237.578C245.298 237.578 244.194 236.938 243.762 236.026V240.57H242.962V229.37H243.666L243.762 230.778C244.194 229.786 245.346 229.162 246.418 229.162C247.33 229.162 248.018 229.45 248.546 229.914C249.442 230.698 249.858 231.978 249.858 233.354ZM249.042 233.37C249.042 232.234 248.722 231.162 247.986 230.506C247.586 230.154 247.074 229.946 246.402 229.946C245.698 229.946 245.17 230.202 244.77 230.586C244.05 231.29 243.746 232.266 243.746 233.37C243.746 234.554 244.018 235.482 244.754 236.17C245.154 236.554 245.698 236.794 246.434 236.794C247.186 236.794 247.73 236.522 248.146 236.09C248.77 235.418 249.042 234.394 249.042 233.37ZM256.434 230.138C256.178 230.074 255.906 230.058 255.65 230.058C253.65 230.058 253.106 231.85 253.106 233.53V237.37H252.306V229.37H253.01L253.106 230.986C253.458 229.882 254.53 229.29 255.65 229.29C255.906 229.29 256.178 229.29 256.434 229.338V230.138Z" fill="white"/>
<path d="M185.678 237.37H184.862V227.226L180.718 237.21H179.982L175.838 227.306V237.37H175.022V226.026H176.19L180.382 236.106L184.494 226.026H185.678V237.37ZM195.611 237.37C195.419 237.402 195.419 237.418 195.227 237.418C194.235 237.418 193.963 236.698 193.963 235.85C193.531 236.986 192.315 237.578 191.083 237.578C189.531 237.578 188.331 236.65 188.331 235.114C188.331 233.69 189.435 232.842 191.019 232.73L193.963 232.522V231.738C193.963 230.41 193.067 229.914 191.851 229.914C190.587 229.914 189.627 230.49 189.547 231.674H188.747C188.859 230.058 190.123 229.162 191.851 229.162C192.939 229.162 194.123 229.53 194.555 230.634C194.747 231.13 194.763 231.642 194.763 232.17V235.818C194.763 236.362 194.843 236.682 195.387 236.682C195.483 236.682 195.531 236.682 195.611 236.666V237.37ZM193.963 233.674V233.258L191.099 233.434C189.915 233.514 189.147 234.138 189.147 235.114C189.147 236.266 190.011 236.842 191.147 236.842C193.163 236.842 193.963 235.21 193.963 233.674ZM202.084 230.138C201.828 230.074 201.556 230.058 201.3 230.058C199.3 230.058 198.756 231.85 198.756 233.53V237.37H197.956V229.37H198.66L198.756 230.986C199.108 229.882 200.18 229.29 201.3 229.29C201.556 229.29 201.828 229.29 202.084 229.338V230.138Z" fill="white"/>
<path d="M126.238 226.826H119.966V231.21H125.614V232.01H119.966V237.37H119.134V226.026H126.238V226.826ZM134.308 233.034C134.308 233.226 134.292 233.37 134.292 233.562H128.18C128.196 234.49 128.5 235.354 129.012 235.962C129.46 236.49 130.084 236.81 130.948 236.81C131.652 236.81 132.26 236.554 132.692 236.106C132.98 235.802 133.204 235.45 133.3 234.97H134.132C134.02 235.658 133.684 236.218 133.236 236.65C132.66 237.226 131.86 237.578 130.948 237.578C129.796 237.578 128.98 237.098 128.404 236.442C127.748 235.674 127.38 234.618 127.38 233.402C127.38 232.394 127.54 231.402 128.164 230.554C128.836 229.642 129.764 229.162 130.884 229.162C133.044 229.162 134.308 231.018 134.308 233.034ZM133.492 232.826C133.46 231.306 132.516 229.914 130.884 229.914C129.236 229.914 128.196 231.242 128.196 232.826H133.492ZM143.589 233.386C143.589 234.762 143.173 236.042 142.277 236.826C141.749 237.29 141.061 237.578 140.149 237.578C139.077 237.578 137.925 236.954 137.493 235.962L137.397 237.37H136.693V225.818H137.493V230.714C137.925 229.802 139.029 229.162 140.165 229.162C141.093 229.162 141.813 229.482 142.341 229.994C143.189 230.794 143.589 232.074 143.589 233.386ZM142.773 233.37C142.773 232.346 142.501 231.322 141.877 230.65C141.461 230.218 140.917 229.946 140.165 229.946C139.429 229.946 138.885 230.186 138.485 230.57C137.749 231.258 137.477 232.186 137.477 233.37C137.477 234.474 137.781 235.45 138.501 236.154C138.901 236.538 139.429 236.794 140.133 236.794C140.805 236.794 141.317 236.586 141.717 236.234C142.453 235.578 142.773 234.506 142.773 233.37Z" fill="white"/>
<path d="M67.486 234.186C67.486 235.21 67.182 236.074 66.638 236.666C66.11 237.226 65.358 237.578 64.35 237.578C63.454 237.578 62.75 237.258 62.222 236.778C61.518 236.138 61.166 235.098 61.15 233.93H61.998C61.998 234.858 62.238 235.69 62.798 236.218C63.166 236.57 63.678 236.762 64.35 236.762C65.118 236.762 65.678 236.538 66.046 236.138C66.462 235.69 66.654 235.018 66.654 234.202V226.026H67.486V234.186ZM77.2118 237.37C77.0198 237.402 77.0198 237.418 76.8278 237.418C75.8358 237.418 75.5638 236.698 75.5638 235.85C75.1318 236.986 73.9158 237.578 72.6838 237.578C71.1318 237.578 69.9318 236.65 69.9318 235.114C69.9318 233.69 71.0358 232.842 72.6198 232.73L75.5638 232.522V231.738C75.5638 230.41 74.6678 229.914 73.4518 229.914C72.1878 229.914 71.2278 230.49 71.1478 231.674H70.3478C70.4598 230.058 71.7238 229.162 73.4518 229.162C74.5398 229.162 75.7238 229.53 76.1558 230.634C76.3478 231.13 76.3638 231.642 76.3638 232.17V235.818C76.3638 236.362 76.4438 236.682 76.9878 236.682C77.0838 236.682 77.1318 236.682 77.2118 236.666V237.37ZM75.5638 233.674V233.258L72.6998 233.434C71.5158 233.514 70.7478 234.138 70.7478 235.114C70.7478 236.266 71.6118 236.842 72.7478 236.842C74.7638 236.842 75.5638 235.21 75.5638 233.674ZM85.8765 237.37H85.0765V232.138C85.0765 230.746 84.4685 229.946 83.0125 229.946C81.0445 229.946 80.3565 231.642 80.3565 233.37V237.37H79.5565V229.37H80.2605L80.3565 230.826C80.8045 229.818 81.9405 229.162 83.0605 229.162C84.9005 229.162 85.8765 230.298 85.8765 232.09V237.37Z" fill="white"/>
</svg>
